<?xml version="1.0" encoding="utf-8" ?>
<svg xmlns="http://www.w3.org/2000/svg" xmlns:xlink="http://www.w3.org/1999/xlink" width="1024" height="1024" viewBox="0 0 1024 1024">
  <defs>
    <linearGradient id="gradient_0" gradientUnits="userSpaceOnUse" x1="485.6524" y1="868.46265" x2="591.87384" y2="514.21899">
      <stop offset="0" stop-color="#745A31"/>
      <stop offset="1" stop-color="#C3A879"/>
    </linearGradient>
  </defs>
  <path fill="url(#gradient_0)" d="M288.217 423.134C289.822 411.512 293.06 399.227 296.689 388.064C310.91 343.433 338.682 304.34 376.144 276.219C424.556 239.784 485.472 224.103 545.459 232.632C604.424 240.794 659.984 275.7 695.601 323.018C706.68 337.721 715.73 353.848 722.507 370.964C738.932 413.66 742.222 477.084 738.486 522.264C738.799 538.067 739.007 553.871 739.109 569.677C739.151 575.497 739.513 583.154 739.313 588.7C739.92 650.171 739.586 711.647 738.31 773.107C764.423 787.016 776.185 793.93 806.163 793.437C818.825 793.228 884.689 790.13 890.246 797.478C889.56 804.902 854.736 802.055 848.378 802.012L789.64 801.988L567.797 801.958L342.196 801.988L266.45 801.991C253.452 801.989 238.979 802.297 226.109 801.889C215.369 802.017 137.692 804.887 136.115 797.612C136.242 797.46 136.352 797.293 136.495 797.156C143.198 790.716 209.889 792.613 221.366 792.718L599.216 792.95C652.565 792.972 705.042 793.655 758.39 792.759C751.931 790.171 745.445 786.817 739.257 783.598C620.827 721.99 493.263 696.8 360.008 696.3C323.309 696.151 286.628 697.925 250.115 701.615C232.397 703.533 214.733 705.716 197.154 708.698C178.646 711.838 158.645 717.054 140.163 719.182C154.997 713.106 181.404 707.786 197.867 704.759C225.747 699.631 258.358 693.331 286.403 691.328L286.365 530.675C286.115 508.31 286.098 485.942 286.314 463.577C286.396 454.366 286.64 431.481 288.217 423.134ZM294.946 690.585C318.954 689.733 339.973 687.984 364.507 687.956C390.419 688.036 416.313 689.315 442.106 691.787C488.657 695.86 533.633 702.235 578.836 714.369C578.085 674.678 579.313 634.246 578.624 594.491C578.44 583.866 579.021 572.125 578.717 561.778C578.273 542.843 578.629 523.705 578.427 504.746C578.206 483.991 577.576 462.589 579.943 441.932C579.697 426.364 583.54 411.059 590.242 397.066C604.035 368.719 626.653 345.612 654.698 331.216C663.468 326.763 672.579 323.601 681.827 320.328C653.062 287.18 624.823 265.393 582.892 251.029C569.134 246.184 554.906 242.797 540.441 240.923C482.947 233.26 424.79 249.073 379.093 284.794C336.24 318.327 303.936 370.706 297.382 425.058C295.919 440.071 295.382 454.925 295.524 470C296.218 543.46 293.576 617.156 294.946 690.585Z"/>
  <defs>
    <linearGradient id="gradient_1" gradientUnits="userSpaceOnUse" x1="511.00632" y1="480.15851" x2="572.69946" y2="238.96942">
      <stop offset="0" stop-color="#EBCC9D"/>
      <stop offset="1" stop-color="#FFEDC0"/>
    </linearGradient>
  </defs>
  <path fill="url(#gradient_1)" d="M288.217 423.134C289.822 411.512 293.06 399.227 296.689 388.064C310.91 343.433 338.682 304.34 376.144 276.219C424.556 239.784 485.472 224.103 545.459 232.632C604.424 240.794 659.984 275.7 695.601 323.018C706.68 337.721 715.73 353.848 722.507 370.964C738.932 413.66 742.222 477.084 738.486 522.264C737.21 527.183 736.578 530.486 735.802 535.518C731.414 535.556 726.832 535.19 722.697 533.626C690.553 521.466 661.849 500.158 631.954 483.431C615.615 474.138 598.576 466.132 580.993 459.485C580.904 452.887 580.583 448.457 579.943 441.932C579.697 426.364 583.54 411.059 590.242 397.066C604.035 368.719 626.653 345.612 654.698 331.216C663.468 326.763 672.579 323.601 681.827 320.328C653.062 287.18 624.823 265.393 582.892 251.029C569.134 246.184 554.906 242.797 540.441 240.923C482.947 233.26 424.79 249.073 379.093 284.794C336.24 318.327 303.936 370.706 297.382 425.058C294.561 425.045 289.672 425.667 288.217 423.134Z"/>
  <path fill="#C3A879" d="M579.943 441.932C580.583 448.457 580.904 452.887 580.993 459.485C598.576 466.132 615.615 474.138 631.954 483.431C661.849 500.158 690.553 521.466 722.697 533.626C726.832 535.19 731.414 535.556 735.802 535.518C736.578 530.486 737.21 527.183 738.486 522.264C738.799 538.067 739.007 553.871 739.109 569.677C739.151 575.497 739.513 583.154 739.313 588.7C738.31 591.932 738.801 618.412 738.802 623.259C732.519 620.204 723.467 617.146 716.608 614.33L665.652 593.244L614.552 571.979C606.172 568.551 596.951 564.533 588.296 562.016C586.872 561.601 581.216 562.621 579.469 562.894L578.717 561.778C578.273 542.843 578.629 523.705 578.427 504.746C578.206 483.991 577.576 462.589 579.943 441.932Z"/>
  <path fill="#70562D" d="M226.109 801.889C215.369 802.017 137.692 804.887 136.115 797.612C136.242 797.46 136.352 797.293 136.495 797.156C143.198 790.716 209.889 792.613 221.366 792.718C219.724 793.705 215.021 793.125 212.607 793.612C222.968 793.849 259.846 792.79 267.064 796.011L266.443 797.526C267.883 798.998 269.255 797.977 270.186 798.764C267.482 799.261 265.887 798.962 263.7 799.306C261.928 799.585 260.314 800.799 257.743 800.909C247.476 801.349 236.708 800.717 226.498 801.042L226.109 801.889Z"/>
</svg>
